<?xml version="1.0" encoding="utf-8"?>
<!-- Generator: Adobe Illustrator 22.0.1, SVG Export Plug-In . SVG Version: 6.00 Build 0)  -->
<svg version="1.1" id="Capa_1" xmlns="http://www.w3.org/2000/svg" xmlns:xlink="http://www.w3.org/1999/xlink" x="0px" y="0px"
	 viewBox="0 0 32 32" style="enable-background:new 0 0 32 32;" xml:space="preserve">
<style type="text/css">
	.st0{fill:#E73C59;}
</style>
<g>
	<path class="st0" d="M27.6,13.9C26.9,15.8,25,17,22.9,17h-1.1l2.5-6.5c0.1-0.1,0.1-0.3-0.1-0.5c-0.1-0.1-0.2-0.2-0.4-0.2
		c-0.4,0-0.7,0.3-0.9,0.6l-4.4,11.3c-0.4,1-1.3,1.6-2.3,1.6h-2.7l5.8-14.7h5.9c1,0,1.9,0.5,2.4,1.3s0.7,1.8,0.3,2.7L27.6,13.9z
		 M6.6,23.4c-1,0-1.9-0.5-2.4-1.3s-0.7-1.8-0.3-2.7L5.6,15h2.6c0.4,0,0.8,0.2,1.1,0.5s0.3,0.8,0.1,1.2l-1.9,4.7
		c-0.1,0.1-0.1,0.3,0.1,0.5C7.7,22,7.9,22.1,8,22.1c0.3,0,0.7-0.2,0.8-0.5l4.5-11.3c0.4-1,1.3-1.6,2.3-1.6h2.7l-5.8,14.7H6.6
		L6.6,23.4z M16,0C7.1,0,0,7.2,0,16s7.1,16,16,16c8.8,0,16-7.1,16-16C31.9,7.2,24.8,0,16,0"/>
</g>
</svg>
